<svg width="500" height="500" viewBox="0 0 500 500" fill="none" xmlns="http://www.w3.org/2000/svg">
<rect width="500" height="500" fill="white"/>
<g clip-path="url(#clip0_165_16)">
<path d="M95.8726 175.692C96.9034 172.862 100.809 172.774 102.019 175.427L102.127 175.692L107.23 189.719C109.606 196.25 114.75 201.394 121.281 203.77L135.308 208.872V208.873C138.138 209.904 138.226 213.809 135.573 215.019L135.308 215.128L121.281 220.23C114.75 222.606 109.606 227.75 107.23 234.281L102.127 248.308C101.097 251.138 97.1911 251.226 95.981 248.573L95.8726 248.308L90.77 234.281C88.3944 227.75 83.25 222.606 76.7192 220.23L62.6909 215.128H62.6919C59.7713 214.064 59.7713 209.937 62.6919 208.873L62.6909 208.872L76.7192 203.77C83.25 201.394 88.3944 196.25 90.77 189.719L95.8726 175.692Z" stroke="black" stroke-width="5"/>
</g>
<g clip-path="url(#clip1_165_16)">
<path d="M156.569 78.9548C158.22 74.4223 164.551 74.3517 166.348 78.7429L166.43 78.9548L174.315 100.633C176.691 107.163 181.836 112.309 188.367 114.684L210.044 122.568V122.569C214.577 124.22 214.648 130.551 210.256 132.348L210.044 132.43L188.367 140.315C181.836 142.691 176.691 147.836 174.315 154.367L166.43 176.045C164.779 180.577 158.448 180.648 156.651 176.257L156.569 176.045L148.684 154.367C146.308 147.836 141.163 142.691 134.632 140.315L112.954 132.43H112.955C108.35 130.753 108.35 124.246 112.955 122.569L112.954 122.568L134.632 114.684C141.163 112.309 146.308 107.163 148.684 100.633L156.569 78.9548Z" stroke="black" stroke-width="5"/>
</g>
<path d="M327.218 232.5C359.316 232.5 396.227 242.267 418.032 258.191C428.927 266.148 435.689 275.365 436.685 285.338C437.673 295.238 433.051 306.692 419.348 319.346L417.209 321.321L419.484 323.137C432.812 333.775 438.704 345.271 439.424 356.399C440.147 367.58 435.679 378.834 427.41 388.976C410.826 409.317 379.475 424.5 347.709 424.5C315.615 424.5 286.247 416.643 264.975 401.242C243.787 385.904 230.5 363.005 230.5 332.44C230.5 301.481 238.951 276.555 255.085 259.385C271.196 242.239 295.277 232.5 327.218 232.5Z" fill="white" stroke="black" stroke-width="5"/>
<circle cx="283.5" cy="274.5" r="6.5" fill="#262626"/>
<circle cx="345.5" cy="287.5" r="6.5" fill="#262626"/>
<path d="M249.792 285.362C259.529 295.099 265 308.306 265 322.077C265 335.848 259.529 349.054 249.792 358.792C240.054 368.529 226.848 374 213.077 374C199.306 374 186.099 368.529 176.362 358.792" fill="white"/>
<path d="M249.792 285.362C259.529 295.099 265 308.306 265 322.077C265 335.848 259.529 349.054 249.792 358.792C240.054 368.529 226.848 374 213.077 374C199.306 374 186.099 368.529 176.362 358.792" stroke="#161616" stroke-width="5" stroke-miterlimit="10"/>
<path d="M225.313 309.837C228.515 313.092 230.301 317.48 230.283 322.046C230.264 326.612 228.442 330.985 225.214 334.214C221.985 337.442 217.612 339.264 213.046 339.283C208.48 339.301 204.092 337.515 200.837 334.313" stroke="#161616" stroke-width="5" stroke-miterlimit="10"/>
<path d="M167 238V250.667ZM140.131 249.131L149.087 258.087ZM129 276H141.667Z" fill="#161616"/>
<path d="M167 238V250.667M140.131 249.131L149.087 258.087M129 276H141.667" stroke="#161616" stroke-width="5" stroke-miterlimit="10" stroke-linecap="round"/>
<path d="M200.837 334.313L160.042 293.521C157.878 291.358 154.944 290.143 151.884 290.143C148.825 290.143 145.89 291.358 143.726 293.521L135.552 301.678C134.481 302.749 133.63 304.021 133.05 305.421C132.47 306.821 132.172 308.322 132.172 309.837C132.172 311.353 132.47 312.853 133.05 314.253C133.63 315.653 134.481 316.926 135.552 317.997L176.362 358.792M249.792 285.362L208.997 244.552C207.925 243.481 206.653 242.631 205.253 242.051C203.853 241.471 202.353 241.172 200.837 241.172C199.322 241.172 197.821 241.471 196.421 242.051C195.021 242.631 193.749 243.481 192.677 244.552L184.521 252.712C183.45 253.784 182.599 255.056 182.019 256.456C181.439 257.856 181.141 259.356 181.141 260.872C181.141 262.387 181.439 263.888 182.019 265.288C182.599 266.688 183.45 267.96 184.521 269.032L225.313 309.837M148.028 330.015L172.503 305.536ZM196.979 281.06L221.458 256.585Z" fill="white"/>
<path d="M200.837 334.313L160.042 293.521C157.878 291.358 154.944 290.143 151.884 290.143C148.825 290.143 145.89 291.358 143.726 293.521L135.552 301.678C134.481 302.749 133.63 304.021 133.05 305.421C132.47 306.821 132.172 308.322 132.172 309.837C132.172 311.353 132.47 312.853 133.05 314.253C133.63 315.653 134.481 316.926 135.552 317.997L176.362 358.792M249.792 285.362L208.997 244.552C207.925 243.481 206.653 242.631 205.253 242.051C203.853 241.471 202.353 241.172 200.837 241.172C199.322 241.172 197.821 241.471 196.421 242.051C195.021 242.631 193.749 243.481 192.677 244.552L184.521 252.712C183.45 253.784 182.599 255.056 182.019 256.456C181.439 257.856 181.141 259.356 181.141 260.872C181.141 262.387 181.439 263.888 182.019 265.288C182.599 266.688 183.45 267.96 184.521 269.032L225.313 309.837M148.028 330.015L172.503 305.536M196.979 281.06L221.458 256.585" stroke="#161616" stroke-width="5" stroke-linejoin="round"/>
<defs>
<clipPath id="clip0_165_16">
<rect width="82" height="82" fill="white" transform="translate(58 171)"/>
</clipPath>
<clipPath id="clip1_165_16">
<rect width="109" height="109" fill="white" transform="translate(107 73)"/>
</clipPath>
</defs>
</svg>
