<svg width="500" height="500" viewBox="0 0 500 500" fill="none" xmlns="http://www.w3.org/2000/svg">
<g clip-path="url(#clip0_165_16)">
<path d="M95.8726 175.692C96.9034 172.862 100.809 172.774 102.019 175.427L102.127 175.692L107.23 189.719C109.606 196.25 114.75 201.394 121.281 203.77L135.308 208.872V208.873C138.138 209.904 138.226 213.809 135.573 215.019L135.308 215.128L121.281 220.23C114.75 222.606 109.606 227.75 107.23 234.281L102.127 248.308C101.097 251.138 97.1911 251.226 95.981 248.573L95.8726 248.308L90.77 234.281C88.3944 227.75 83.25 222.606 76.7192 220.23L62.6909 215.128H62.6919C59.7713 214.064 59.7713 209.937 62.6919 208.873L62.6909 208.872L76.7192 203.77C83.25 201.394 88.3944 196.25 90.77 189.719L95.8726 175.692Z" fill="white" stroke="black" stroke-width="5"/>
</g>
<g clip-path="url(#clip1_165_16)">
<path d="M156.569 78.9548C158.22 74.4223 164.551 74.3517 166.348 78.7429L166.43 78.9548L174.315 100.633C176.691 107.163 181.836 112.309 188.367 114.684L210.044 122.568V122.569C214.577 124.22 214.648 130.551 210.256 132.348L210.044 132.43L188.367 140.315C181.836 142.691 176.691 147.836 174.315 154.367L166.43 176.045C164.779 180.577 158.448 180.648 156.651 176.257L156.569 176.045L148.684 154.367C146.308 147.836 141.163 142.691 134.632 140.315L112.954 132.43H112.955C108.35 130.753 108.35 124.246 112.955 122.569L112.954 122.568L134.632 114.684C141.163 112.309 146.308 107.163 148.684 100.633L156.569 78.9548Z" fill="white" stroke="black" stroke-width="5"/>
</g>
<path d="M327.218 232.5C359.316 232.5 396.227 242.267 418.032 258.191C428.927 266.148 435.689 275.365 436.685 285.338C437.673 295.238 433.051 306.692 419.348 319.346L417.209 321.321L419.484 323.137C432.812 333.775 438.704 345.271 439.424 356.399C440.147 367.58 435.679 378.834 427.41 388.976C410.826 409.317 379.475 424.5 347.709 424.5C315.615 424.5 286.247 416.643 264.975 401.242C243.787 385.904 230.5 363.005 230.5 332.44C230.5 301.481 238.951 276.555 255.085 259.385C271.196 242.239 295.277 232.5 327.218 232.5Z" fill="white" stroke="black" stroke-width="5"/>
<circle cx="283.5" cy="274.5" r="6.5" fill="#262626"/>
<circle cx="345.5" cy="287.5" r="6.5" fill="#262626"/>
<path d="M167 238V250.667ZM140.131 249.131L149.087 258.087ZM129 276H141.667Z" fill="#161616"/>
<path d="M167 238V250.667M140.131 249.131L149.087 258.087M129 276H141.667" stroke="#161616" stroke-width="5" stroke-miterlimit="10" stroke-linecap="round"/>
<path d="M155.139 290.219C145.341 280.971 121.368 305.784 131.459 315.308L167.093 348.942C174.365 355.806 213.252 391.821 248.601 354.368C275.042 326.355 260.315 294.608 243.953 279.164L201.41 239.01C193.774 231.803 169.325 254.793 179.506 264.402L214.413 297.349C224.958 307.302 237.583 315.78 223.512 330.688C218.265 336.247 208.955 341.012 194.773 327.627L155.139 290.219Z" fill="white" stroke="black" stroke-width="5"/>
<path d="M144.165 326.614L167.502 301.888" stroke="black" stroke-width="5"/>
<path d="M190.84 277.162L214.177 252.436" stroke="black" stroke-width="5"/>
<defs>
<clipPath id="clip0_165_16">
<rect width="82" height="82" fill="white" transform="translate(58 171)"/>
</clipPath>
<clipPath id="clip1_165_16">
<rect width="109" height="109" fill="white" transform="translate(107 73)"/>
</clipPath>
</defs>
</svg>
